<?xml version="1.0" encoding="UTF-8"?> <svg xmlns="http://www.w3.org/2000/svg" width="64" height="64" viewBox="0 0 64 64" fill="none"> <path d="M38 17C38 17 33.5 21.6406 33.5 24.5C32.1934 22.9004 30.5 21.5 30.5 21.5C30.5 21.5 29 26.1406 29 29C27.6934 27.4004 26 26 26 26C26 26 24.5 30.6406 24.5 33.5C23.1934 31.9004 21.5 30.5 21.5 30.5C21.5 30.5 20 35.1406 20 38C20 39.5352 20.4688 40.3027 21.1719 40.6719L17.4219 44.4219L19.5781 46.5781L23.3281 42.8281C23.6973 43.5312 24.4648 44 26 44C28.8594 44 33.5 42.5 33.5 42.5C33.5 42.5 32.0996 40.8066 30.5 39.5C33.3594 39.5 38 38 38 38C38 38 36.5996 36.3066 35 35C37.8594 35 42.5 33.5 42.5 33.5C42.5 33.5 41.0996 31.8066 39.5 30.5C42.3594 30.5 47 26 47 26C47 26 45.0781 25.2676 43.2031 24.8281C45.4004 22.7188 45.5 18.5 45.5 18.5C45.5 18.5 41.2871 18.4707 39.1719 20.7031C38.7266 18.8574 38 17 38 17ZM35 27.3125C35.4512 27.4707 35.9551 27.5 36.5 27.5C36.5 28.0449 36.5293 28.5488 36.6875 29C36.6289 28.9941 36.5586 29 36.5 29C35.8379 29 35.2109 29.1465 34.625 29.375C34.8535 28.7891 35 28.1621 35 27.5C35 27.4414 35.0059 27.3711 35 27.3125ZM30.5 31.8125C30.9512 31.9707 31.4551 32 32 32C32 32.5449 32.0293 33.0488 32.1875 33.5C32.1289 33.4941 32.0586 33.5 32 33.5C31.3379 33.5 30.7109 33.6465 30.125 33.875C30.3535 33.2891 30.5 32.6621 30.5 32C30.5 31.9414 30.5059 31.8711 30.5 31.8125ZM26 36.3125C26.4512 36.4707 26.9551 36.5 27.5 36.5C27.5 37.0449 27.5293 37.5488 27.6875 38C27.6289 37.9941 27.5586 38 27.5 38C26.8379 38 26.2109 38.1465 25.625 38.375C25.8535 37.7891 26 37.1621 26 36.5C26 36.4414 26.0059 36.3711 26 36.3125Z" fill="url(#paint0_linear)"></path> <defs> <linearGradient id="paint0_linear" x1="32.2109" y1="17" x2="32.2109" y2="46.5781" gradientUnits="userSpaceOnUse"> <stop stop-color="#51C100"></stop> <stop offset="1" stop-color="#96FF4A"></stop> </linearGradient> </defs> </svg> 