<?xml version="1.0" encoding="UTF-8"?> <svg xmlns="http://www.w3.org/2000/svg" width="64" height="64" viewBox="0 0 64 64" fill="none"> <path d="M20 17V20C20 21.0957 20.3984 22.0391 21.5 23C22.3672 23.7617 23.6797 24.6289 25.5781 25.0625C25.666 25.0742 25.7656 25.0684 25.8594 25.0625C25.5898 25.2324 25.3496 25.4316 25.1094 25.625C24.1543 25.0801 22.8242 24.5117 21.5 24.5C18.875 24.4766 17 25.4023 17 26C17 26.7734 18.9102 28.9883 21.5 29C22.1855 29.0059 22.7422 28.8066 23.2344 28.5781C23.0996 29.1406 23 29.7617 23 30.5C23 33.4414 24.6172 35.2227 25.5781 36.5C26.5449 37.7832 26.6094 38.5566 26.6094 39.5C26.6094 40.9062 26 41.252 26 44C26 45.9746 28.7832 47 32 47C35.2168 47 38 46.1504 38 44C38 41.252 37.4375 40.7832 37.4375 39.5C37.4375 38.5566 37.4551 37.7832 38.4219 36.5C39.3828 35.2227 41 33.4414 41 30.5C41 29.7617 40.9414 29.1406 40.8125 28.5781C41.293 28.8008 41.8262 29.0059 42.5 29C45.0898 28.9883 47 26.7734 47 26C46.8828 25.4141 45.125 24.4766 42.5 24.5C41.1758 24.5117 39.875 25.0801 38.9375 25.625C38.6797 25.4199 38.3867 25.2441 38.0938 25.0625C38.2402 25.0801 38.3398 25.0742 38.4688 25.0625C40.3965 24.6172 41.6738 23.6973 42.5 23C43.6367 22.0391 43.9414 21.1895 44 20C44.0527 18.998 44 17.9668 44 17C43.373 19.9707 42.0664 21.5 39.5 21.5H34.4844C34.0566 20.6445 33.6055 20 32 20C30.4707 20 30.0078 20.6445 29.5625 21.5H24.5C21.9336 21.5 20.75 20.0293 20 17ZM30.5 26C30.8984 25.959 33.1074 25.959 33.5 26C35.3105 26.1758 36.1895 26.8027 37.1562 27.5C37.9473 28.0742 37.4199 31.5664 37.1562 32C36.6758 32.791 33.5 33.623 33.5 36.5C33.5 39.5176 35.8438 38.3516 35.8438 42.5C35.5508 41.8789 34.9238 42.0957 34.5781 42.5C34.1562 42.9922 34.2207 43.8828 34.5781 44C34.1094 44.3516 32.6211 44.5156 32 44.5156C31.3789 44.5156 30.1484 44.4043 29.4219 44C29.7793 43.8828 29.9434 43.1094 29.4219 42.5C29.0938 42.1191 28.4492 41.8789 28.1562 42.5C28.1562 38.4219 30.5 39.4531 30.5 36.5C30.5 33.5879 27.3301 32.791 26.8438 32C26.5742 31.5664 26.0527 28.0742 26.8438 27.5C27.8047 26.8027 28.7422 26.1816 30.5 26Z" fill="url(#paint0_linear)"></path> <defs> <linearGradient id="paint0_linear" x1="32" y1="17" x2="32" y2="47" gradientUnits="userSpaceOnUse"> <stop stop-color="#51C100"></stop> <stop offset="1" stop-color="#96FF4A"></stop> </linearGradient> </defs> </svg> 