<?xml version="1.0" encoding="UTF-8"?> <svg xmlns="http://www.w3.org/2000/svg" width="64" height="64" viewBox="0 0 64 64" fill="none"> <path d="M29 15.5C26.5145 15.5 24.5 17.5145 24.5 20C24.5 21.158 24.9504 22.202 25.6689 23H32.3311C33.0496 22.202 33.5 21.158 33.5 20C33.5 17.5145 31.4855 15.5 29 15.5ZM44 23L39.5938 25.6455C38.4442 24.9334 37.1494 24.3324 35.7061 23.8877L35.3428 24.9746C35.1388 25.5866 34.5654 26 33.9189 26H24.0811C23.4346 26 22.8612 25.5881 22.6572 24.9746L22.54 24.6201C19.9688 25.9723 18.2209 28.0832 17.4512 30.5703C17.3053 30.524 17.1531 30.5003 17 30.5C16.6022 30.5 16.2206 30.658 15.9393 30.9393C15.658 31.2206 15.5 31.6022 15.5 32C15.5 32.3978 15.658 32.7794 15.9393 33.0607C16.2206 33.342 16.6022 33.5 17 33.5C17 35.2464 17.5877 37.0261 18.6113 38.665L19.792 45.7461C19.912 46.4706 20.538 47 21.2715 47H24.7285C25.462 47 26.088 46.4706 26.208 45.7461L26.3867 44.6738C27.9068 45.1923 29.5387 45.5 31.25 45.5C32.2918 45.5 33.304 45.4132 34.2822 45.2568L34.8916 46.2705C35.1631 46.7235 35.6497 47 36.1777 47H39.5C40.4465 47 41.1552 46.1355 40.9707 45.207L40.5225 42.9629C42.0254 42.0117 43.2506 40.8329 44.1113 39.5H45.8281C46.5166 39.5 47.1177 39.0323 47.2842 38.3633L48.1631 34.8477C48.3536 34.0872 47.9256 33.308 47.1816 33.0605L45.0869 32.3633C44.6816 31.0451 43.9802 29.7598 43.0068 28.584C43.5535 27.1635 44 25.3092 44 23ZM41 32C41.828 32 42.5 32.672 42.5 33.5C42.5 34.328 41.828 35 41 35C40.172 35 39.5 34.328 39.5 33.5C39.5 32.672 40.172 32 41 32Z" fill="url(#paint0_linear)"></path> <defs> <linearGradient id="paint0_linear" x1="31.8541" y1="15.5" x2="31.8541" y2="47" gradientUnits="userSpaceOnUse"> <stop stop-color="#51C100"></stop> <stop offset="1" stop-color="#96FF4A"></stop> </linearGradient> </defs> </svg> 