<?xml version="1.0" encoding="UTF-8"?> <svg xmlns="http://www.w3.org/2000/svg" width="64" height="64" viewBox="0 0 64 64" fill="none"> <path d="M44 17C43.2044 17 42.4413 17.3161 41.8787 17.8787C41.3161 18.4413 41 19.2044 41 20C41.0001 20.487 41.1188 20.9666 41.3457 21.3975L38.7793 24.6055C38.5253 24.5363 38.2633 24.5008 38 24.5C37.2971 24.5011 36.6169 24.7489 36.0781 25.2002L31.9912 23.1553C31.9955 23.1036 31.9984 23.0518 32 23C32 22.2044 31.6839 21.4413 31.1213 20.8787C30.5587 20.3161 29.7956 20 29 20C28.2044 20 27.4413 20.3161 26.8787 20.8787C26.3161 21.4413 26 22.2044 26 23C26.0006 23.0518 26.0026 23.1036 26.0059 23.1553L21.9219 25.1973C21.3826 24.747 20.7025 24.5002 20 24.5C19.2044 24.5 18.4413 24.8161 17.8787 25.3787C17.3161 25.9413 17 26.7044 17 27.5C17 28.2956 17.3161 29.0587 17.8787 29.6213C18.4413 30.1839 19.2044 30.5 20 30.5C20.7956 30.5 21.5587 30.1839 22.1213 29.6213C22.6839 29.0587 23 28.2956 23 27.5C22.9994 27.4482 22.9974 27.3964 22.9941 27.3447L27.0781 25.3027C27.6174 25.753 28.2975 25.9998 29 26C29.7025 25.9998 30.3826 25.753 30.9219 25.3027L35.0088 27.3447C35.0045 27.3964 35.0016 27.4482 35 27.5C35 28.2956 35.3161 29.0587 35.8787 29.6213C36.4413 30.1839 37.2044 30.5 38 30.5C38.7956 30.5 39.5587 30.1839 40.1213 29.6213C40.6839 29.0587 41 28.2956 41 27.5C40.9994 27.014 40.8808 26.5354 40.6543 26.1055L43.2207 22.8975C43.4748 22.9657 43.7369 23.0001 44 23C44.7956 23 45.5587 22.6839 46.1213 22.1213C46.6839 21.5587 47 20.7956 47 20C47 19.2044 46.6839 18.4413 46.1213 17.8787C45.5587 17.3161 44.7956 17 44 17ZM44 33.5C43.2044 33.5 42.4413 33.8161 41.8787 34.3787C41.3161 34.9413 41 35.7044 41 36.5C41.0007 36.9549 41.1049 37.4038 41.3047 37.8125L38.7441 41.0967C38.5011 41.0334 38.2511 41.001 38 41C37.513 41.0001 37.0334 41.1188 36.6025 41.3457L33.3975 38.7793C33.4657 38.5252 33.5001 38.2631 33.5 38C33.5 37.2044 33.1839 36.4413 32.6213 35.8787C32.0587 35.3161 31.2956 35 30.5 35C29.7748 35.0013 29.0746 35.2652 28.529 35.743C27.9833 36.2207 27.6293 36.8799 27.5322 37.5986L22.3115 39.0898C22.0302 38.7492 21.6772 38.4749 21.2776 38.2865C20.878 38.0981 20.4418 38.0003 20 38C19.2044 38 18.4413 38.3161 17.8787 38.8787C17.3161 39.4413 17 40.2044 17 41C17 41.7956 17.3161 42.5587 17.8787 43.1213C18.4413 43.6839 19.2044 44 20 44C20.7252 43.9987 21.4254 43.7348 21.971 43.257C22.5167 42.7793 22.8707 42.1201 22.9678 41.4014L28.1885 39.9102C28.4698 40.2508 28.8228 40.5251 29.2224 40.7135C29.622 40.9019 30.0582 40.9997 30.5 41C30.986 40.9994 31.4646 40.8808 31.8945 40.6543L35.1025 43.2207C35.0343 43.4748 34.9999 43.7369 35 44C35 44.7956 35.3161 45.5587 35.8787 46.1213C36.4413 46.6839 37.2044 47 38 47C38.7956 47 39.5587 46.6839 40.1213 46.1213C40.6839 45.5587 41 44.7956 41 44C40.9998 43.5006 40.8749 43.0092 40.6367 42.5703L43.1328 39.3711C43.414 39.4563 43.7062 39.4997 44 39.5C44.7956 39.5 45.5587 39.1839 46.1213 38.6213C46.6839 38.0587 47 37.2956 47 36.5C47 35.7044 46.6839 34.9413 46.1213 34.3787C45.5587 33.8161 44.7956 33.5 44 33.5Z" fill="url(#paint0_linear)"></path> <defs> <linearGradient id="paint0_linear" x1="32" y1="17" x2="32" y2="47" gradientUnits="userSpaceOnUse"> <stop stop-color="#51C100"></stop> <stop offset="1" stop-color="#96FF4A"></stop> </linearGradient> </defs> </svg> 