<?xml version="1.0" encoding="UTF-8"?> <svg xmlns="http://www.w3.org/2000/svg" width="30" height="30" viewBox="0 0 30 30" fill="none"> <path d="M0 15C0 6.71573 6.71573 0 15 0V0C23.2843 0 30 6.71573 30 15V15C30 23.2843 23.2843 30 15 30V30C6.71573 30 0 23.2843 0 15V15Z" fill="#1D2835"></path> <path d="M19.6667 9H10.3333C9.59667 9 9 9.59667 9 10.3333V19.6667C9 20.4033 9.59667 21 10.3333 21H15.414V16.3593H13.852V14.5427H15.414V13.206C15.414 11.6567 16.3613 10.812 17.744 10.812C18.21 10.8107 18.6753 10.8347 19.1387 10.882V12.502H18.1867C17.4333 12.502 17.2867 12.858 17.2867 13.3833V14.54H19.0867L18.8527 16.3567H17.276V21H19.6667C20.4033 21 21 20.4033 21 19.6667V10.3333C21 9.59667 20.4033 9 19.6667 9Z" fill="#EBF0F3"></path> </svg> 