<?xml version="1.0" encoding="UTF-8"?> <svg xmlns="http://www.w3.org/2000/svg" width="30" height="30" viewBox="0 0 30 30" fill="none"> <path d="M0 15C0 6.71573 6.71573 0 15 0V0C23.2843 0 30 6.71573 30 15V15C30 23.2843 23.2843 30 15 30V30C6.71573 30 0 23.2843 0 15V15Z" fill="#1D2835"></path> <path fill-rule="evenodd" clip-rule="evenodd" d="M9 11.6667C9 10.1939 10.1939 9 11.6667 9H18.3333C19.8061 9 21 10.1939 21 11.6667V18.3333C21 19.8061 19.8061 21 18.3333 21H11.6667C10.1939 21 9 19.8061 9 18.3333V11.6667ZM15 17C16.1046 17 17 16.1046 17 15C17 13.8954 16.1046 13 15 13C13.8954 13 13 13.8954 13 15C13 16.1046 13.8954 17 15 17ZM15 18.3333C16.8409 18.3333 18.3333 16.8409 18.3333 15C18.3333 13.1591 16.8409 11.6667 15 11.6667C13.1591 11.6667 11.6667 13.1591 11.6667 15C11.6667 16.8409 13.1591 18.3333 15 18.3333ZM19 11.6667C19.3682 11.6667 19.6667 11.3682 19.6667 11C19.6667 10.6318 19.3682 10.3333 19 10.3333C18.6318 10.3333 18.3333 10.6318 18.3333 11C18.3333 11.3682 18.6318 11.6667 19 11.6667Z" fill="#EBF0F3"></path> </svg> 