<?xml version="1.0" encoding="UTF-8"?> <svg xmlns="http://www.w3.org/2000/svg" width="30" height="30" viewBox="0 0 30 30" fill="none"> <path d="M0 15C0 6.71573 6.71573 0 15 0V0C23.2843 0 30 6.71573 30 15V15C30 23.2843 23.2843 30 15 30V30C6.71573 30 0 23.2843 0 15V15Z" fill="#1D2835"></path> <path fill-rule="evenodd" clip-rule="evenodd" d="M11.6667 9C10.1939 9 9 10.1939 9 11.6667V18.3333C9 19.8061 10.1939 21 11.6667 21H18.3333C19.8061 21 21 19.8061 21 18.3333V11.6667C21 10.1939 19.8061 9 18.3333 9H11.6667ZM18.0056 11.7436C18.0988 11.7063 18.2049 11.6725 18.3205 11.6673C18.4361 11.6622 18.5608 11.6858 18.6924 11.7643C18.8239 11.8429 18.9332 11.9925 18.9737 12.1459C19.0142 12.2993 19.004 12.4498 18.9698 12.6054L18.9721 12.5958C18.9721 12.5958 17.8711 18.2209 17.8454 18.3553L17.8446 18.3561C17.8124 18.5226 17.7408 18.6454 17.6258 18.7655C17.5109 18.8855 17.3312 19 17.1039 19C16.723 19 16.5584 18.7734 16.5374 18.7432L15.3873 17.6605L14.4481 18.469L14.4395 18.4753C14.4395 18.4753 14.3061 18.5954 14.0887 18.5954C14.038 18.5954 13.9833 18.5839 13.9285 18.5667C13.9226 18.5655 13.9178 18.5648 13.9135 18.5641C13.9064 18.563 13.9005 18.5621 13.8933 18.5596C13.8894 18.5582 13.8857 18.5563 13.882 18.5544C13.8791 18.5529 13.8761 18.5513 13.873 18.5501L13.8824 18.5524C13.8808 18.5518 13.8791 18.5513 13.8775 18.5509C13.8757 18.5505 13.874 18.55 13.8722 18.5493C13.8482 18.5393 13.8243 18.5287 13.8027 18.5151C13.7464 18.4795 13.7005 18.4344 13.6621 18.3847C13.5852 18.2852 13.5298 18.1661 13.473 17.9833H13.4738C13.4028 17.7553 13.1314 16.9286 13.0145 16.5725C12.9989 16.525 12.9861 16.4859 12.9768 16.4577C12.7549 16.3674 11.8231 15.988 11.511 15.8615V15.8623C11.4187 15.825 11.3082 15.7748 11.1992 15.6675C11.0903 15.5603 11 15.3729 11 15.189C11 14.961 11.1373 14.7524 11.261 14.6564C11.3676 14.5735 11.4655 14.5363 11.5079 14.5202C11.5145 14.5177 11.5198 14.5156 11.5235 14.5141C11.7372 14.4226 12.0052 14.3078 12.3096 14.1774C13.1461 13.8192 14.2583 13.343 15.2779 12.9067C15.9733 12.6091 16.6256 12.3306 17.118 12.1205C17.1681 12.0991 17.2164 12.0785 17.2627 12.0587C17.671 11.8844 17.9283 11.7746 18.0056 11.7436ZM17.0719 18.1383C17.1328 17.822 18.1191 12.7807 18.1626 12.5585C18.0592 12.602 17.8426 12.6937 17.4274 12.8709C16.9355 13.0808 16.2833 13.3596 15.5881 13.6571C14.2633 14.224 12.8409 14.8329 12.0111 15.1882C12.4144 15.3521 13.1161 15.6386 13.3361 15.7285C13.3706 15.7426 13.3933 15.7518 13.4011 15.755C14.3594 15.2004 16.3081 14.0705 16.7656 13.7803C16.77 13.7775 16.7749 13.7743 16.7802 13.7709C16.818 13.7463 16.8756 13.7088 16.9195 13.7088C16.9751 13.7088 16.9992 13.743 16.9992 13.7907C16.9992 13.8265 16.9774 13.8626 16.8734 13.9655C16.7442 14.0942 14.5989 16.3035 14.5989 16.3035L14.2879 17.5405L15.4107 16.5746L17.0719 18.1383ZM17.0609 18.1963H17.0602C17.0598 18.1984 17.0607 18.1961 17.0602 18.1987L17.0609 18.1963Z" fill="#EBF0F3"></path> </svg> 