<?xml version="1.0" encoding="UTF-8"?> <svg xmlns="http://www.w3.org/2000/svg" width="30" height="30" viewBox="0 0 30 30" fill="none"> <path d="M0 15C0 6.71573 6.71573 0 15 0V0C23.2843 0 30 6.71573 30 15V15C30 23.2843 23.2843 30 15 30V30C6.71573 30 0 23.2843 0 15V15Z" fill="#1D2835"></path> <path d="M19.6667 9H10.3333C9.59667 9 9 9.59667 9 10.3333V19.6667C9 20.4033 9.59667 21 10.3333 21H19.6667C20.4033 21 21 20.4033 21 19.6667V10.3333C21 9.59667 20.4033 9 19.6667 9ZM18.938 17.456L17.7813 17.472C17.7813 17.472 17.532 17.5207 17.2053 17.2953C16.7727 16.998 16.3647 16.2247 16.0467 16.3253C15.724 16.428 15.734 17.124 15.734 17.124C15.734 17.124 15.7367 17.2467 15.6627 17.3267C15.5827 17.4127 15.426 17.404 15.426 17.404H14.908C14.908 17.404 13.7653 17.4987 12.758 16.4487C11.6607 15.304 10.6913 13.0447 10.6913 13.0447C10.6913 13.0447 10.6347 12.902 10.6953 12.8293C10.764 12.7487 10.9493 12.7467 10.9493 12.7467L12.1873 12.7407C12.1873 12.7407 12.304 12.7613 12.388 12.8227C12.4567 12.8733 12.496 12.9687 12.496 12.9687C12.496 12.9687 12.696 13.476 12.9613 13.9353C13.4787 14.8307 13.7193 15.0267 13.8947 14.9307C14.1507 14.7907 14.074 13.6653 14.074 13.6653C14.074 13.6653 14.0787 13.2567 13.9453 13.0747C13.8413 12.9327 13.646 12.8907 13.56 12.88C13.49 12.8707 13.604 12.7087 13.7527 12.6353C13.9753 12.5267 14.3693 12.52 14.834 12.5247C15.196 12.5287 15.3007 12.5507 15.442 12.5853C15.8693 12.6887 15.724 13.0873 15.724 14.044C15.724 14.3507 15.6687 14.7813 15.8893 14.9233C15.9847 14.9847 16.2167 14.9327 16.796 13.946C17.0713 13.478 17.2773 12.928 17.2773 12.928C17.2773 12.928 17.3227 12.83 17.3927 12.788C17.4647 12.7447 17.5613 12.758 17.5613 12.758L18.8647 12.75C18.8647 12.75 19.256 12.7027 19.32 12.8807C19.3867 13.0667 19.174 13.5007 18.6413 14.2107C17.7673 15.3773 17.67 15.2687 18.396 15.9433C19.0893 16.588 19.2327 16.9013 19.2567 16.9407C19.5433 17.418 18.938 17.456 18.938 17.456Z" fill="#EBF0F3"></path> </svg> 