<?xml version="1.0" encoding="UTF-8"?> <svg xmlns="http://www.w3.org/2000/svg" width="120" height="32" viewBox="0 0 120 32" fill="none"> <path d="M23.7993 1.33336H57.5748L52.6632 19.6444C50.9211 26.1392 44.929 30.6667 38.0753 30.6667H23.7993L0 30.6666L4.91162 12.3556C6.65375 5.86084 12.6459 1.33333 19.4995 1.33333L23.7993 1.33336Z" fill="#48B64B"></path> <path d="M16.1359 9.72485C17.246 9.72485 18.2097 9.90414 19.027 10.2627C19.8566 10.6213 20.4909 11.1353 20.9301 11.8046C21.3692 12.474 21.5888 13.2688 21.5888 14.1892C21.5888 15.0976 21.3692 15.8924 20.9301 16.5737C20.4909 17.2431 19.8566 17.757 19.027 18.1156C18.2097 18.4742 17.246 18.6535 16.1359 18.6535H13.2448V22.2751H10.866V9.72485H16.1359ZM16.0261 16.6813C17.063 16.6813 17.8499 16.4661 18.3866 16.0359C18.9234 15.6056 19.1917 14.99 19.1917 14.1892C19.1917 13.3883 18.9234 12.7728 18.3866 12.3425C17.8499 11.9122 17.063 11.697 16.0261 11.697H13.2448V16.6813H16.0261Z" fill="white"></path> <path d="M31.247 22.2751L28.6303 18.5997C28.5205 18.6117 28.3559 18.6176 28.1363 18.6176H25.2452V22.2751H22.8664V9.72485H28.1363C29.2464 9.72485 30.2101 9.90414 31.0274 10.2627C31.8569 10.6213 32.4913 11.1353 32.9304 11.8046C33.3696 12.474 33.5892 13.2688 33.5892 14.1892C33.5892 15.1334 33.3513 15.9462 32.8755 16.6275C32.412 17.3088 31.741 17.8168 30.8627 18.1515L33.8087 22.2751H31.247ZM31.1921 14.1892C31.1921 13.3883 30.9237 12.7728 30.387 12.3425C29.8502 11.9122 29.0634 11.697 28.0265 11.697H25.2452V16.6992H28.0265C29.0634 16.6992 29.8502 16.4841 30.387 16.0538C30.9237 15.6115 31.1921 14.99 31.1921 14.1892Z" fill="white"></path> <path d="M41.1362 22.4544C39.8309 22.4544 38.6537 22.1795 37.6046 21.6297C36.5555 21.0679 35.7321 20.297 35.1344 19.3169C34.5366 18.3248 34.2377 17.2192 34.2377 16C34.2377 14.7808 34.5366 13.6812 35.1344 12.7011C35.7321 11.709 36.5555 10.938 37.6046 10.3882C38.6537 9.82645 39.8309 9.54556 41.1362 9.54556C42.4415 9.54556 43.6186 9.82645 44.6677 10.3882C45.7168 10.938 46.5403 11.703 47.138 12.6831C47.7357 13.6633 48.0346 14.7689 48.0346 16C48.0346 17.2311 47.7357 18.3367 47.138 19.3169C46.5403 20.297 45.7168 21.0679 44.6677 21.6297C43.6186 22.1795 42.4415 22.4544 41.1362 22.4544ZM41.1362 20.4105C41.9901 20.4105 42.7586 20.2253 43.4418 19.8547C44.1249 19.4722 44.6616 18.9463 45.052 18.277C45.4424 17.5957 45.6375 16.8367 45.6375 16C45.6375 15.1633 45.4424 14.4103 45.052 13.7409C44.6616 13.0596 44.1249 12.5337 43.4418 12.1632C42.7586 11.7807 41.9901 11.5895 41.1362 11.5895C40.2823 11.5895 39.5137 11.7807 38.8306 12.1632C38.1475 12.5337 37.6107 13.0596 37.2204 13.7409C36.83 14.4103 36.6348 15.1633 36.6348 16C36.6348 16.8367 36.83 17.5957 37.2204 18.277C37.6107 18.9463 38.1475 19.4722 38.8306 19.8547C39.5137 20.2253 40.2823 20.4105 41.1362 20.4105Z" fill="white"></path> <path fill-rule="evenodd" clip-rule="evenodd" d="M61.2843 15.5454V11.723H68.2623V9.76694H58.9033V22.3288H61.2843V17.5194H67.4748V15.5454H61.2843ZM78.1354 18.2552C78.1599 17.968 78.1721 17.7467 78.1721 17.5912C78.1721 16.6102 77.9584 15.7488 77.531 15.007C77.1159 14.2533 76.5298 13.6731 75.7728 13.2663C75.028 12.8476 74.1794 12.6382 73.227 12.6382C72.2624 12.6382 71.3955 12.8476 70.6262 13.2663C69.857 13.685 69.2526 14.2713 68.8131 15.025C68.3857 15.7667 68.172 16.6042 68.172 17.5373C68.172 18.4825 68.3918 19.3319 68.8314 20.0856C69.2831 20.8273 69.9181 21.4076 70.7361 21.8263C71.5542 22.245 72.5005 22.4544 73.575 22.4544C74.4175 22.4544 75.1745 22.3228 75.846 22.0596C76.5176 21.7964 77.0732 21.4076 77.5127 20.8931L76.2856 19.5113C75.5896 20.2052 74.7044 20.5522 73.6299 20.5522C72.7874 20.5522 72.0792 20.3488 71.5054 19.942C71.1353 19.6662 70.8581 19.328 70.6735 18.9275C70.6735 18.928 70.6735 18.9282 70.6735 18.9282C70.6735 18.9282 70.6695 18.9196 70.6624 18.903C70.5724 18.7025 70.5054 18.4865 70.4614 18.2552H70.4632C70.4055 17.9862 70.3617 17.6525 70.3748 17.2839C70.4195 16.0246 71.0557 14.75 72.487 14.2156C73.8777 13.6964 74.9562 14.0206 76.0176 15.0329C76.2217 15.2276 76.4925 15.5754 76.4925 15.5754C76.4925 15.5754 75.6494 17.7675 72.9871 18.0023C72.4128 18.0529 71.5207 17.832 71.5207 17.832C71.5207 17.832 71.5555 17.2308 72.2258 16.2226C72.7266 15.4691 73.6848 14.995 73.6848 14.995C73.6848 14.995 71.9367 15.3171 71.0641 17.1074C70.8802 17.4847 70.7829 17.9103 70.7314 18.2552H78.1354ZM81.4518 14.1456C82.1111 13.1407 83.2711 12.6382 84.9316 12.6382V14.7737C84.7363 14.7378 84.5592 14.7199 84.4005 14.7199C83.5091 14.7199 82.8132 14.9771 82.3126 15.4916C81.8119 15.994 81.5616 16.7238 81.5616 17.6809V22.3288H79.2723V12.7459H81.4518V14.1456ZM101.05 13.697C100.329 12.9911 99.3524 12.6382 98.1192 12.6382C97.35 12.6382 96.6479 12.7818 96.013 13.0689C95.378 13.3441 94.8591 13.7329 94.4562 14.2354C94.1265 13.709 93.6747 13.3142 93.1009 13.051C92.5392 12.7758 91.8921 12.6382 91.1595 12.6382C90.4879 12.6382 89.8774 12.7519 89.328 12.9792C88.7785 13.2065 88.3206 13.5355 87.9543 13.9662V12.7459H85.7748V22.3288H88.0642V17.4656C88.0642 16.5324 88.2901 15.8206 88.7419 15.33C89.2059 14.8395 89.8286 14.5943 90.61 14.5943C91.3182 14.5943 91.8615 14.8096 92.2401 15.2403C92.6186 15.659 92.8078 16.2871 92.8078 17.1246V22.3288H95.0972V17.4656C95.0972 16.5444 95.3292 15.8385 95.7932 15.348C96.2572 14.8455 96.8738 14.5943 97.643 14.5943C98.3512 14.5943 98.8945 14.8096 99.273 15.2403C99.6516 15.659 99.8408 16.2871 99.8408 17.1246V22.3288H102.13V16.8375C102.13 15.4377 101.77 14.3909 101.05 13.697ZM113.24 17.5912C113.24 17.7467 113.228 17.968 113.204 18.2552H105.53C105.664 18.961 106.012 19.5233 106.574 19.942C107.148 20.3488 107.856 20.5522 108.698 20.5522C109.773 20.5522 110.658 20.2052 111.354 19.5113L112.581 20.8931C112.142 21.4076 111.586 21.7964 110.914 22.0596C110.243 22.3228 109.486 22.4544 108.643 22.4544C107.569 22.4544 106.623 22.245 105.805 21.8263C104.986 21.4076 104.352 20.8273 103.9 20.0856C103.46 19.3319 103.24 18.4825 103.24 17.5373C103.24 16.6042 103.454 15.7667 103.881 15.025C104.321 14.2713 104.925 13.685 105.695 13.2663C106.464 12.8476 107.331 12.6382 108.295 12.6382C109.248 12.6382 110.096 12.8476 110.841 13.2663C111.598 13.6731 112.184 14.2533 112.599 15.007C113.027 15.7488 113.24 16.6102 113.24 17.5912ZM108.295 14.4328C107.563 14.4328 106.94 14.6481 106.427 15.0788C105.927 15.4975 105.621 16.0598 105.511 16.7657H111.061C110.963 16.0718 110.664 15.5095 110.164 15.0788C109.663 14.6481 109.04 14.4328 108.295 14.4328ZM120 12.6382C118.339 12.6382 117.179 13.1407 116.52 14.1456V12.7459H114.341V22.3288H116.63V17.6809C116.63 16.7238 116.88 15.994 117.381 15.4916C117.882 14.9771 118.578 14.7199 119.469 14.7199C119.628 14.7199 119.805 14.7378 120 14.7737V12.6382Z" fill="white"></path> </svg> 