<?xml version="1.0" encoding="UTF-8"?> <svg xmlns="http://www.w3.org/2000/svg" width="115" height="46" viewBox="0 0 115 46" fill="none"> <path d="M0 0H27.2756C38.6754 0 47.9167 9.43347 47.9167 21.0702V45.1505H20.641C9.2413 45.1505 0 35.717 0 24.0803V0Z" fill="#51C100"></path> <path d="M16.0786 19.6103C16.0786 20.2641 15.9231 20.877 15.6121 21.4491C15.3126 22.0212 14.8345 22.4824 14.1779 22.8326C13.5328 23.1829 12.7149 23.358 11.7242 23.358H9.70247V28.0515H7.28333V15.8275H11.7242C12.6573 15.8275 13.4521 15.9909 14.1088 16.3178C14.7654 16.6447 15.255 17.0942 15.5775 17.6663C15.9116 18.2384 16.0786 18.8864 16.0786 19.6103ZM11.6205 21.3791C12.2886 21.3791 12.784 21.2273 13.1065 20.9237C13.4291 20.6085 13.5904 20.1707 13.5904 19.6103C13.5904 18.4194 12.9337 17.8239 11.6205 17.8239H9.70247V21.3791H11.6205Z" fill="white"></path> <path d="M24.0168 28.0515L21.3558 23.288H20.2153V28.0515H17.7962V15.8275H22.3234C23.2565 15.8275 24.0514 15.9968 24.708 16.3353C25.3647 16.6623 25.8542 17.1118 26.1768 17.6838C26.5109 18.2443 26.6779 18.8747 26.6779 19.5752C26.6779 20.3808 26.4475 21.1105 25.9867 21.7644C25.5259 22.4065 24.8405 22.8502 23.9304 23.0953L26.8161 28.0515H24.0168ZM20.2153 21.4491H22.237C22.8937 21.4491 23.3833 21.2915 23.7058 20.9763C24.0284 20.6494 24.1896 20.1999 24.1896 19.6278C24.1896 19.0674 24.0284 18.6354 23.7058 18.3318C23.3833 18.0166 22.8937 17.859 22.237 17.859H20.2153V21.4491Z" fill="white"></path> <path d="M34.4645 28.1741C33.3356 28.1741 32.2988 27.9056 31.3542 27.3685C30.4096 26.8314 29.6608 26.09 29.1078 25.1443C28.5549 24.187 28.2784 23.107 28.2784 21.9045C28.2784 20.7136 28.5549 19.6453 29.1078 18.6996C29.6608 17.7422 30.4096 16.995 31.3542 16.4579C32.2988 15.9209 33.3356 15.6523 34.4645 15.6523C35.605 15.6523 36.6417 15.9209 37.5748 16.4579C38.5195 16.995 39.2625 17.7422 39.8039 18.6996C40.3569 19.6453 40.6333 20.7136 40.6333 21.9045C40.6333 23.107 40.3569 24.187 39.8039 25.1443C39.2625 26.09 38.5195 26.8314 37.5748 27.3685C36.6302 27.9056 35.5934 28.1741 34.4645 28.1741ZM34.4645 25.985C35.1903 25.985 35.8296 25.8215 36.3825 25.4946C36.9355 25.156 37.3675 24.6773 37.6785 24.0585C37.9895 23.4398 38.1451 22.7217 38.1451 21.9045C38.1451 21.0872 37.9895 20.375 37.6785 19.7679C37.3675 19.1491 36.9355 18.6762 36.3825 18.3493C35.8296 18.0224 35.1903 17.859 34.4645 17.859C33.7388 17.859 33.0937 18.0224 32.5292 18.3493C31.9763 18.6762 31.5443 19.1491 31.2332 19.7679C30.9222 20.375 30.7667 21.0872 30.7667 21.9045C30.7667 22.7217 30.9222 23.4398 31.2332 24.0585C31.5443 24.6773 31.9763 25.156 32.5292 25.4946C33.0937 25.8215 33.7388 25.985 34.4645 25.985Z" fill="white"></path> <path d="M60.3332 15.9585V17.9954H55.1946V21.222H59.1324V23.2228H55.1946V28.5404H52.7224V15.9585H60.3332Z" fill="white"></path> <path d="M71.1803 23.331C71.1803 23.6915 71.1568 24.016 71.1097 24.3044H63.958C64.0169 25.0254 64.2641 25.5902 64.6997 25.9988C65.1352 26.4074 65.6709 26.6116 66.3066 26.6116C67.2248 26.6116 67.8782 26.2091 68.2667 25.4039H70.9331C70.6506 26.3653 70.109 27.1584 69.3085 27.7833C68.508 28.3962 67.525 28.7026 66.3596 28.7026C65.4178 28.7026 64.5702 28.4923 63.8167 28.0717C63.0751 27.6391 62.4924 27.0322 62.0686 26.2511C61.6565 25.47 61.4505 24.5687 61.4505 23.5473C61.4505 22.5138 61.6565 21.6065 62.0686 20.8254C62.4806 20.0443 63.0574 19.4435 63.7991 19.0229C64.5407 18.6023 65.3942 18.392 66.3596 18.392C67.2896 18.392 68.1195 18.5962 68.8494 19.0048C69.5911 19.4134 70.162 19.9962 70.5623 20.7533C70.9743 21.4984 71.1803 22.3576 71.1803 23.331ZM68.6198 22.61C68.6081 21.961 68.3785 21.4443 67.9312 21.0598C67.4838 20.6632 66.9364 20.4649 66.2889 20.4649C65.6768 20.4649 65.1588 20.6572 64.735 21.0417C64.323 21.4143 64.0699 21.937 63.9757 22.61H68.6198Z" fill="white"></path> <path d="M75.457 20.1044C75.7748 19.5756 76.1869 19.1611 76.6931 18.8606C77.211 18.5602 77.7997 18.41 78.4589 18.41V21.0598H77.8055C77.0286 21.0598 76.44 21.246 76.0397 21.6185C75.6512 21.9911 75.457 22.64 75.457 23.5653V28.5404H72.9848V18.5542H75.457V20.1044Z" fill="white"></path> <path d="M92.2731 18.41C93.4738 18.41 94.4392 18.7885 95.169 19.5456C95.9107 20.2907 96.2815 21.3361 96.2815 22.6821V28.5404H93.8093V23.0245C93.8093 22.2434 93.6151 21.6486 93.2266 21.24C92.8381 20.8194 92.3084 20.6091 91.6374 20.6091C90.9663 20.6091 90.4307 20.8194 90.0304 21.24C89.642 21.6486 89.4477 22.2434 89.4477 23.0245V28.5404H86.9755V23.0245C86.9755 22.2434 86.7813 21.6486 86.3928 21.24C86.0043 20.8194 85.4746 20.6091 84.8035 20.6091C84.1207 20.6091 83.5792 20.8194 83.179 21.24C82.7905 21.6486 82.5962 22.2434 82.5962 23.0245V28.5404H80.124V18.5542H82.5962V19.7619C82.9141 19.3413 83.3202 19.0108 83.8147 18.7705C84.3209 18.5302 84.8742 18.41 85.4746 18.41C86.2398 18.41 86.9225 18.5782 87.5229 18.9147C88.1233 19.2392 88.5883 19.7078 88.918 20.3207C89.2358 19.7439 89.6949 19.2812 90.2953 18.9327C90.9075 18.5842 91.5667 18.41 92.2731 18.41Z" fill="white"></path> <path d="M107.722 23.331C107.722 23.6915 107.698 24.016 107.651 24.3044H100.499C100.558 25.0254 100.805 25.5902 101.241 25.9988C101.677 26.4074 102.212 26.6116 102.848 26.6116C103.766 26.6116 104.419 26.2091 104.808 25.4039H107.474C107.192 26.3653 106.65 27.1584 105.85 27.7833C105.049 28.3962 104.066 28.7026 102.901 28.7026C101.959 28.7026 101.111 28.4923 100.358 28.0717C99.6164 27.6391 99.0336 27.0322 98.6098 26.2511C98.1978 25.47 97.9918 24.5687 97.9918 23.5473C97.9918 22.5138 98.1978 21.6065 98.6098 20.8254C99.0219 20.0443 99.5987 19.4435 100.34 19.0229C101.082 18.6023 101.935 18.392 102.901 18.392C103.831 18.392 104.661 18.5962 105.391 19.0048C106.132 19.4134 106.703 19.9962 107.104 20.7533C107.516 21.4984 107.722 22.3576 107.722 23.331ZM105.161 22.61C105.149 21.961 104.92 21.4443 104.472 21.0598C104.025 20.6632 103.478 20.4649 102.83 20.4649C102.218 20.4649 101.7 20.6572 101.276 21.0417C100.864 21.4143 100.611 21.937 100.517 22.61H105.161Z" fill="white"></path> <path d="M111.998 20.1044C112.316 19.5756 112.728 19.1611 113.234 18.8606C113.752 18.5602 114.341 18.41 115 18.41V21.0598H114.347C113.57 21.0598 112.981 21.246 112.581 21.6185C112.192 21.9911 111.998 22.64 111.998 23.5653V28.5404H109.526V18.5542H111.998V20.1044Z" fill="white"></path> </svg> 