<?xml version="1.0" encoding="UTF-8"?> <svg xmlns="http://www.w3.org/2000/svg" width="150" height="24" viewBox="0 0 150 24" fill="none"> <g clip-path="url(#clip0)"> <path d="M0 0.109131H73.0909V23.4546H0V0.109131Z" fill="black"></path> <path d="M37.5272 0.654541H72.4908V22.8H37.5272V0.654541Z" fill="white"></path> <path d="M38.1273 19.2545H71.891V22.2545H38.1273V19.2545Z" fill="#F7B600"></path> <path d="M38.1273 1.25452H71.891V4.25452H38.1273V1.25452ZM51.6001 7.63634L48.1091 15.9272H45.8182L44.1273 9.2727C44.1114 9.12286 44.0581 8.97941 43.9723 8.85552C43.8866 8.73163 43.7711 8.63126 43.6364 8.56361C42.957 8.2462 42.2431 8.00826 41.5091 7.85452L41.5637 7.63634H45.2182C45.4598 7.63838 45.6924 7.72795 45.8729 7.88843C46.0535 8.04891 46.1697 8.26942 46.2 8.50906L47.0728 13.3091L49.3637 7.63634H51.6001ZM60.5455 13.2C60.5455 11.0182 57.491 10.8545 57.5455 9.92725C57.5455 9.59997 57.8182 9.32724 58.4728 9.21815C59.2033 9.15189 59.9382 9.28379 60.6001 9.59997L60.9819 7.85452C60.3419 7.59198 59.6553 7.46209 58.9637 7.4727C56.8364 7.4727 55.3637 8.61816 55.3091 10.2C55.3091 11.4 56.4001 12.0545 57.2182 12.4363C58.0364 12.8182 58.3637 13.0909 58.3637 13.4727C58.3637 14.0182 57.7091 14.2909 57.0546 14.2909C56.2754 14.2976 55.5068 14.1102 54.8182 13.7454L54.4364 15.5454C55.1981 15.8537 56.015 16.0022 56.8364 15.9818C59.0728 16.0909 60.5455 14.9454 60.5455 13.2ZM66.1637 15.9272H68.1819L66.4364 7.63634H64.5819C64.386 7.63677 64.1944 7.69357 64.03 7.79997C63.8656 7.90637 63.7352 8.05786 63.6546 8.23634L60.3819 15.9272H62.6182L63.0546 14.6727H65.8364C65.9729 15.0832 66.0823 15.5023 66.1637 15.9272ZM63.7637 12.9818L64.9091 9.8727L65.5637 12.9818H63.7637ZM54.7091 7.63634L52.9091 15.9272H50.7819L52.5273 7.63634H54.7091Z" fill="#1A1F71"></path> <path d="M10.3091 21.4909V20.1818C10.3181 20.0833 10.3076 19.984 10.2782 19.8895C10.2488 19.7951 10.2011 19.7074 10.1378 19.6314C10.0745 19.5554 9.99679 19.4926 9.90919 19.4467C9.8216 19.4007 9.72582 19.3725 9.62731 19.3636H9.49094C9.34177 19.3575 9.19349 19.3894 9.05995 19.4562C8.92641 19.5229 8.81197 19.6224 8.72731 19.7454C8.64571 19.6323 8.53949 19.5391 8.41666 19.473C8.29384 19.4068 8.1576 19.3694 8.01822 19.3636C7.89074 19.3609 7.76454 19.3893 7.6505 19.4463C7.53646 19.5034 7.43802 19.5873 7.36367 19.6909V19.4181H6.92731V21.5454H7.36367V20.3454C7.36624 20.2108 7.40384 20.0792 7.47276 19.9636C7.57622 19.8649 7.71177 19.8068 7.85458 19.8C8.18185 19.8 8.34549 20.0181 8.34549 20.3454V21.5454H8.78185V20.3454C8.78442 20.2108 8.82202 20.0792 8.89094 19.9636C8.9944 19.8649 9.12995 19.8068 9.27276 19.8C9.60003 19.8 9.76367 20.0181 9.76367 20.3454V21.5454C9.94221 21.5028 10.1257 21.4844 10.3091 21.4909ZM17.1273 19.4181H16.3637V18.7636H15.9273V19.4181H15.4909V19.8H15.9273V20.7818C15.9273 21.2727 16.0909 21.5454 16.6364 21.5454C16.831 21.5502 17.022 21.4929 17.1819 21.3818L17.0728 21C16.9535 21.0601 16.824 21.0971 16.6909 21.109C16.5819 21.109 16.5273 21.0545 16.4182 21C16.3761 20.9354 16.3569 20.8586 16.3637 20.7818V19.8H17.1273V19.4181ZM21.0546 19.309C20.9421 19.307 20.8314 19.3366 20.7349 19.3945C20.6385 19.4523 20.5602 19.5361 20.5091 19.6363V19.3636H20.0728V21.4909H20.5091V20.2909C20.5091 19.9636 20.6728 19.7454 20.9455 19.7454C21.04 19.7307 21.1366 19.75 21.2182 19.8L21.3273 19.4181C21.2728 19.3636 21.1637 19.3636 21.0546 19.309ZM15.1637 19.5272C14.8989 19.3744 14.5965 19.2988 14.2909 19.309C13.7455 19.309 13.4182 19.5272 13.4182 19.9636C13.4182 20.2909 13.6364 20.509 14.1273 20.5636H14.3455C14.5637 20.6181 14.7273 20.6727 14.7273 20.7818C14.7273 20.8909 14.5637 21.0545 14.2364 21.0545C13.9818 21.0668 13.7309 20.9897 13.5273 20.8363L13.3091 21.1636C13.5722 21.327 13.8725 21.4208 14.1819 21.4363C14.7819 21.4363 15.1091 21.1636 15.1091 20.7818C15.1091 20.4 14.8364 20.2363 14.4 20.1818H14.1819C13.9637 20.1818 13.8 20.0727 13.8 19.9636C13.8 19.8545 13.9637 19.6909 14.2364 19.6909C14.4645 19.6926 14.6889 19.7487 14.8909 19.8545C14.9455 19.8545 15.1637 19.5272 15.1637 19.5272ZM21.5455 20.4545C21.5474 20.7588 21.6643 21.051 21.8728 21.2727C21.9789 21.3811 22.1065 21.4663 22.2473 21.5226C22.3882 21.579 22.5393 21.6053 22.6909 21.6C22.9623 21.6111 23.23 21.5346 23.4546 21.3818L23.2364 21.0545C23.0809 21.1809 22.8907 21.257 22.6909 21.2727C22.5754 21.267 22.4629 21.2332 22.3634 21.1741C22.2639 21.115 22.1804 21.0325 22.1202 20.9337C22.0599 20.8349 22.0247 20.7228 22.0177 20.6073C22.0107 20.4918 22.0321 20.3764 22.08 20.271C22.1279 20.1657 22.2008 20.0736 22.2924 20.003C22.3841 19.9323 22.4916 19.8851 22.6057 19.8655C22.7197 19.846 22.8368 19.8546 22.9468 19.8907C23.0567 19.9268 23.1561 19.9893 23.2364 20.0727L23.4546 19.7454C23.3499 19.6573 23.2277 19.5923 23.0961 19.5547C22.9645 19.5171 22.8264 19.5077 22.6909 19.5272C22.5536 19.4473 22.3938 19.4147 22.2362 19.4344C22.0785 19.4541 21.9317 19.5251 21.8182 19.6363C21.7079 19.739 21.6251 19.8677 21.5775 20.0106C21.5298 20.1536 21.5188 20.3062 21.5455 20.4545ZM18.5455 19.309C18.4113 19.3062 18.278 19.3299 18.1531 19.3789C18.0282 19.4279 17.9142 19.5012 17.8178 19.5945C17.7214 19.6879 17.6445 19.7994 17.5915 19.9227C17.5385 20.046 17.5105 20.1785 17.5091 20.3127C17.5064 20.3417 17.5064 20.3709 17.5091 20.4C17.5068 20.6788 17.6035 20.9493 17.7819 21.1636C17.9898 21.3593 18.2603 21.4752 18.5455 21.4909C18.8567 21.4866 19.1599 21.3918 19.4182 21.2181L19.2 20.8909C19.1199 20.9659 19.0255 21.0238 18.9224 21.0613C18.8192 21.0988 18.7096 21.1151 18.6 21.109C18.4435 21.1124 18.291 21.059 18.1707 20.9587C18.0505 20.8585 17.9705 20.7182 17.9455 20.5636H19.5273V20.4C19.5475 20.2759 19.5428 20.1492 19.5136 20.027C19.4844 19.9048 19.4312 19.7896 19.3571 19.6881C19.283 19.5866 19.1895 19.5009 19.082 19.4358C18.9745 19.3707 18.8552 19.3276 18.7309 19.309C18.6694 19.3009 18.607 19.3009 18.5455 19.309ZM18.5455 19.7454C18.6902 19.7454 18.8289 19.8029 18.9312 19.9052C19.0335 20.0075 19.0909 20.1462 19.0909 20.2909H18C17.9956 20.2235 18.0045 20.1559 18.0262 20.092C18.048 20.0281 18.0821 19.9691 18.1267 19.9184C18.1713 19.8678 18.2255 19.8264 18.2861 19.7967C18.3468 19.767 18.4127 19.7496 18.48 19.7454H18.5455ZM12.8728 20.4545V19.4181H12.4364V19.6363C12.3583 19.5368 12.259 19.4558 12.1458 19.3992C12.0327 19.3427 11.9084 19.3119 11.7819 19.309C11.4925 19.309 11.215 19.424 11.0105 19.6286C10.8059 19.8332 10.6909 20.1106 10.6909 20.4C10.6909 20.6893 10.8059 20.9668 11.0105 21.1713C11.215 21.3759 11.4925 21.4909 11.7819 21.4909C11.9093 21.4935 12.0355 21.4651 12.1496 21.4081C12.2636 21.3511 12.3621 21.2672 12.4364 21.1636V21.4363H12.8728V20.4545ZM11.1819 20.4545C11.1818 20.2944 11.2447 20.1406 11.3569 20.0263C11.4691 19.9121 11.6217 19.8465 11.7819 19.8436H11.8909C12.0625 19.8554 12.2238 19.9296 12.3444 20.0522C12.465 20.1748 12.5366 20.3373 12.5455 20.509C12.5427 20.6818 12.4728 20.8466 12.3507 20.9688C12.2285 21.0909 12.0637 21.1608 11.8909 21.1636C11.7977 21.1687 11.7045 21.1517 11.6192 21.1137C11.5338 21.0758 11.4587 21.0181 11.4 20.9454C11.285 20.8041 11.2097 20.6346 11.1819 20.4545ZM27.3819 19.309C27.2694 19.307 27.1586 19.3366 27.0622 19.3945C26.9657 19.4523 26.8875 19.5361 26.8364 19.6363V19.3636H26.4V21.4909H26.8364V20.2909C26.8364 19.9636 27 19.7454 27.2728 19.7454C27.3673 19.7307 27.4639 19.75 27.5455 19.8L27.6546 19.4181C27.6 19.3636 27.4909 19.3636 27.3819 19.309ZM30.7637 21.1636H30.8728C30.8801 21.1627 30.8876 21.1635 30.8946 21.166C30.9016 21.1684 30.908 21.1724 30.9133 21.1776C30.9185 21.1829 30.9225 21.1893 30.9249 21.1963C30.9274 21.2033 30.9282 21.2108 30.9273 21.2181L30.9819 21.2727V21.4909C30.9827 21.4982 30.9819 21.5057 30.9795 21.5127C30.9771 21.5198 30.9731 21.5261 30.9678 21.5314C30.9626 21.5366 30.9562 21.5406 30.9492 21.5431C30.9422 21.5455 30.9347 21.5463 30.9273 21.5454C30.9199 21.5445 30.9125 21.5453 30.9054 21.5478C30.8984 21.5502 30.892 21.5542 30.8868 21.5594C30.8815 21.5647 30.8776 21.5711 30.8751 21.5781C30.8727 21.5851 30.8719 21.5926 30.8728 21.6H30.6546C30.6472 21.6008 30.6397 21.6 30.6327 21.5976C30.6257 21.5952 30.6193 21.5912 30.6141 21.5859C30.6088 21.5807 30.6048 21.5743 30.6024 21.5673C30.6 21.5603 30.5992 21.5528 30.6 21.5454C30.6009 21.538 30.6001 21.5306 30.5977 21.5235C30.5952 21.5165 30.5912 21.5102 30.586 21.5049C30.5807 21.4997 30.5744 21.4957 30.5674 21.4932C30.5603 21.4908 30.5529 21.49 30.5455 21.4909V21.2727C30.5446 21.2653 30.5454 21.2578 30.5479 21.2508C30.5503 21.2438 30.5543 21.2374 30.5595 21.2322C30.5648 21.2269 30.5711 21.2229 30.5782 21.2205C30.5852 21.2181 30.5927 21.2173 30.6 21.2181C30.6074 21.219 30.6149 21.2182 30.6219 21.2158C30.6289 21.2133 30.6353 21.2094 30.6405 21.2041C30.6458 21.1989 30.6498 21.1925 30.6522 21.1855C30.6546 21.1784 30.6555 21.171 30.6546 21.1636H30.7637ZM30.7637 21.5454H30.8182C30.8256 21.5463 30.8331 21.5455 30.8401 21.5431C30.8471 21.5406 30.8535 21.5366 30.8587 21.5314C30.864 21.5261 30.868 21.5198 30.8704 21.5127C30.8728 21.5057 30.8736 21.4982 30.8728 21.4909L30.9273 21.4363V21.3272C30.9282 21.3199 30.9274 21.3124 30.9249 21.3054C30.9225 21.2983 30.9185 21.292 30.9133 21.2867C30.908 21.2815 30.9016 21.2775 30.8946 21.275C30.8876 21.2726 30.8801 21.2718 30.8728 21.2727L30.8182 21.2181H30.7091C30.7018 21.2173 30.6943 21.2181 30.6873 21.2205C30.6802 21.2229 30.6739 21.2269 30.6686 21.2322C30.6634 21.2374 30.6594 21.2438 30.6569 21.2508C30.6545 21.2578 30.6537 21.2653 30.6546 21.2727L30.6 21.3272V21.4363C30.5992 21.4437 30.6 21.4512 30.6024 21.4582C30.6048 21.4652 30.6088 21.4716 30.6141 21.4768C30.6193 21.4821 30.6257 21.4861 30.6327 21.4885C30.6397 21.4909 30.6472 21.4917 30.6546 21.4909L30.7091 21.5454H30.7637ZM30.8182 21.3272H30.8728V21.4363H30.8182L30.8728 21.4909H30.8182L30.7637 21.4363V21.4909H30.7091V21.2727C30.7091 21.3272 30.8182 21.3272 30.8182 21.3272ZM30.7637 21.3272L30.8182 21.3818V21.3272H30.7637ZM25.7455 20.4545V19.4181H25.3091V19.6363C25.231 19.5368 25.1317 19.4558 25.0186 19.3992C24.9054 19.3427 24.7811 19.3119 24.6546 19.309C24.3653 19.309 24.0878 19.424 23.8832 19.6286C23.6786 19.8332 23.5637 20.1106 23.5637 20.4C23.5637 20.6893 23.6786 20.9668 23.8832 21.1713C24.0878 21.3759 24.3653 21.4909 24.6546 21.4909C24.7821 21.4935 24.9083 21.4651 25.0223 21.4081C25.1363 21.3511 25.2348 21.2672 25.3091 21.1636V21.4363H25.7455V20.4545ZM24.0546 20.4545C24.0546 20.2944 24.1174 20.1406 24.2296 20.0263C24.3419 19.9121 24.4945 19.8465 24.6546 19.8436H24.7637C24.9335 19.8551 25.0934 19.9277 25.2137 20.0481C25.3341 20.1684 25.4067 20.3283 25.4182 20.4981C25.4154 20.6709 25.3455 20.8357 25.2234 20.9579C25.1012 21.08 24.9364 21.1499 24.7637 21.1527C24.6734 21.1556 24.5835 21.1407 24.499 21.1088C24.4145 21.0769 24.3371 21.0287 24.2712 20.9669C24.2054 20.9051 24.1523 20.8309 24.1152 20.7486C24.078 20.6663 24.0574 20.5775 24.0546 20.4872V20.4545ZM30 20.4545V18.5454H29.5637V19.6363C29.4855 19.5368 29.3863 19.4558 29.2731 19.3992C29.1599 19.3427 29.0356 19.3119 28.9091 19.309C28.6198 19.309 28.3423 19.424 28.1377 19.6286C27.9332 19.8332 27.8182 20.1106 27.8182 20.4C27.8182 20.6893 27.9332 20.9668 28.1377 21.1713C28.3423 21.3759 28.6198 21.4909 28.9091 21.4909C29.0366 21.4935 29.1628 21.4651 29.2768 21.4081C29.3909 21.3511 29.4893 21.2672 29.5637 21.1636V21.4363H30V20.4545ZM28.3091 20.4545C28.3091 20.2944 28.372 20.1406 28.4842 20.0263C28.5964 19.9121 28.749 19.8465 28.9091 19.8436H29.0182C29.188 19.8551 29.3479 19.9277 29.4683 20.0481C29.5886 20.1684 29.6613 20.3283 29.6728 20.4981C29.67 20.6709 29.6001 20.8357 29.4779 20.9579C29.3558 21.08 29.1909 21.1499 29.0182 21.1527C28.925 21.1578 28.8318 21.1407 28.7464 21.1028C28.6611 21.0649 28.586 21.0072 28.5273 20.9345C28.414 20.7963 28.3388 20.6308 28.3091 20.4545Z" fill="white"></path> <path d="M14.6728 3.43628H22.3092V15.8181H14.6728V3.43628Z" fill="#FF5F00"></path> <path d="M15.4364 9.59999C15.4385 8.40497 15.7093 7.22572 16.2286 6.14941C16.7478 5.0731 17.5024 4.12726 18.4364 3.38181C17.1044 2.34542 15.477 1.76028 13.7901 1.71124C12.1031 1.6622 10.4444 2.15182 9.05454 3.10908C7.66227 4.06907 6.61782 5.45362 6.07713 7.05602C5.53645 8.65842 5.52852 10.3927 6.05454 12C6.42848 13.2219 7.09471 14.3343 7.99552 15.2407C8.89633 16.147 10.0046 16.8201 11.2242 17.2016C12.4438 17.5831 13.738 17.6614 14.9947 17.4298C16.2515 17.1983 17.4328 16.6638 18.4364 15.8727C17.5063 15.1116 16.7554 14.155 16.2369 13.0709C15.7184 11.9868 15.4451 10.8017 15.4364 9.59999Z" fill="#EB001B"></path> <path d="M30.491 14.5091V14.2364H30.6001V14.1818H30.3273V14.2364H30.4364L30.491 14.5091ZM31.0364 14.5091V14.1818H30.9273L30.8182 14.4L30.7637 14.1818H30.6546V14.5091H30.7092V14.2909L30.8182 14.5091H30.8728L30.9819 14.2909L31.0364 14.5091ZM31.2546 9.60001C31.2477 11.0774 30.8274 12.5234 30.0413 13.7743C29.2552 15.0253 28.1347 16.0312 26.8065 16.6782C25.4783 17.3253 23.9955 17.5877 22.5259 17.4357C21.0563 17.2837 19.6586 16.7234 18.491 15.8182C19.435 15.0818 20.1967 14.1377 20.717 13.0594C21.2372 11.981 21.5021 10.7973 21.491 9.60001C21.496 8.40377 21.2284 7.22211 20.7086 6.1447C20.1888 5.06729 19.4304 4.12243 18.491 3.38183C19.6635 2.47517 21.0655 1.91323 22.5396 1.75907C24.0138 1.60492 25.5017 1.86464 26.8364 2.5091C28.1654 3.15567 29.285 4.16406 30.0665 5.4184C30.8481 6.67273 31.2599 8.12212 31.2546 9.60001Z" fill="#F79E1B"></path> <path fill-rule="evenodd" clip-rule="evenodd" d="M108.055 11.9455H104.345V14.5637H107.945V16.0909H104.345V21.2728H102.709V10.4182H108.055V11.9455Z" fill="white"></path> <path fill-rule="evenodd" clip-rule="evenodd" d="M111.055 15.8182C111.026 16.3671 111.119 16.9155 111.327 17.4245C111.534 17.9335 111.851 18.3907 112.255 18.7636C112.608 19.1331 113.031 19.4292 113.499 19.6352C113.967 19.8411 114.471 19.9527 114.982 19.9636C115.513 19.9802 116.042 19.8816 116.531 19.6744C117.021 19.4673 117.46 19.1566 117.818 18.7636C118.199 18.3846 118.501 17.9341 118.707 17.438C118.913 16.9418 119.019 16.4099 119.018 15.8727C119.037 15.3378 118.945 14.8048 118.748 14.3072C118.551 13.8097 118.253 13.3584 117.873 12.9818C117.511 12.6078 117.079 12.3091 116.602 12.1032C116.124 11.8972 115.611 11.788 115.091 11.7818C114.559 11.7652 114.031 11.8638 113.541 12.071C113.052 12.2781 112.613 12.5889 112.255 12.9818C111.866 13.3434 111.558 13.783 111.352 14.2718C111.145 14.7606 111.044 15.2875 111.055 15.8182ZM109.418 15.7636C109.405 15.0265 109.55 14.2952 109.841 13.6181C110.133 12.941 110.565 12.3336 111.109 11.8363C111.622 11.2978 112.24 10.8701 112.925 10.5793C113.61 10.2885 114.347 10.1408 115.091 10.1454C115.828 10.1327 116.559 10.2769 117.236 10.5684C117.914 10.8599 118.521 11.2921 119.018 11.8363C119.549 12.3552 119.972 12.9743 120.263 13.6578C120.553 14.3413 120.705 15.0756 120.709 15.8182C120.728 16.5642 120.587 17.3056 120.295 17.9925C120.004 18.6794 119.568 19.2957 119.018 19.8C118.489 20.3289 117.859 20.7463 117.166 21.0274C116.473 21.3084 115.73 21.4475 114.982 21.4363C113.604 21.4316 112.279 20.9054 111.273 19.9636C110.653 19.4607 110.161 18.8176 109.839 18.0873C109.516 17.3571 109.372 16.5606 109.418 15.7636Z" fill="white"></path> <path fill-rule="evenodd" clip-rule="evenodd" d="M135.055 19.7454H135.818C136.429 19.756 137.038 19.6638 137.618 19.4727C138.1 19.3049 138.544 19.0456 138.927 18.709C139.311 18.3326 139.616 17.8826 139.822 17.3859C140.028 16.8891 140.132 16.3559 140.127 15.8181C140.149 15.278 140.053 14.7397 139.846 14.2405C139.638 13.7413 139.325 13.2932 138.927 12.9272C138.218 12.2727 137.182 11.9454 135.764 11.9454H135C135.055 11.9454 135.055 19.7454 135.055 19.7454ZM133.473 21.2727V10.4181H135.709C136.576 10.39 137.441 10.5004 138.273 10.7454C138.948 10.9671 139.564 11.3402 140.073 11.8363C140.636 12.3419 141.08 12.9663 141.372 13.6643C141.665 14.3624 141.798 15.1166 141.764 15.8727C141.788 16.6325 141.644 17.3883 141.342 18.0861C141.041 18.7839 140.589 19.4063 140.018 19.909C139.483 20.3705 138.875 20.7392 138.218 20.9999C137.403 21.2294 136.555 21.3215 135.709 21.2727H133.473ZM144.873 16.6363L141.327 10.4727H143.182L145.636 14.7817L148.091 10.4727H149.945L146.4 16.6363V21.2727H144.764L144.873 16.6363ZM129.982 10.4181V18.4363L123.709 10.4181H122.127V21.2727H123.764V13.309L129.982 21.2727H131.564V10.4181H129.982Z" fill="white"></path> <path d="M90.7909 8.30177L93.4145 9.81813V12.5454L95.7545 13.8927V16.5872L98.0891 17.94V20.9454L95.4545 22.4618L93.12 21.1145L90.7854 22.4618L88.4454 21.1145L86.1054 22.4618L83.4818 20.9454V17.9127L85.8163 16.56V13.8654L88.1563 12.5454V9.81813L90.7854 8.30177H90.7909ZM90.7854 7.63086L87.5727 9.47995V12.1745L85.2327 13.5272V16.2218L82.9091 17.5745V21.2727L86.1163 23.1218L88.4563 21.7745L90.7963 23.1218L93.1309 21.7745L95.4545 23.1327L98.6727 21.2727V17.5636L96.3381 16.2109V13.5272L93.9981 12.18V9.47995L90.7909 7.63631L90.7854 7.63086Z" fill="white"></path> <path fill-rule="evenodd" clip-rule="evenodd" d="M92.8309 12.5182V10.1563L90.7909 8.97815L88.7454 10.1563V12.5182L90.7909 13.6963L92.8309 12.5182Z" fill="white"></path> <path fill-rule="evenodd" clip-rule="evenodd" d="M88.7454 18.2453V20.6071L90.7909 21.7853L92.8309 20.6071V18.2453L90.7909 17.0671L88.7454 18.2453Z" fill="white"></path> <path fill-rule="evenodd" clip-rule="evenodd" d="M90.4964 14.2035L88.4509 13.0199L86.4055 14.2035V16.5599L88.4509 17.7435L90.4964 16.5599V14.2035Z" fill="white"></path> <path fill-rule="evenodd" clip-rule="evenodd" d="M95.1709 14.2035L93.1254 13.0199L91.08 14.2035V16.5599L93.1254 17.7435L95.1709 16.5599V14.2035Z" fill="white"></path> <path fill-rule="evenodd" clip-rule="evenodd" d="M84.071 18.2453V20.6071L86.1164 21.7853L88.1564 20.6071V18.2453L86.1164 17.0671L84.071 18.2453Z" fill="white"></path> <path fill-rule="evenodd" clip-rule="evenodd" d="M95.4599 17.0671L93.4145 18.2453V20.6071L95.4599 21.7853L97.5054 20.6071V18.2453L95.4599 17.0671Z" fill="white"></path> <path fill-rule="evenodd" clip-rule="evenodd" d="M85.3199 0.621793C85.061 0.397065 84.7239 0.283404 84.3818 0.305429H83.0781L82.3963 4.18361H82.909L83.1763 2.66725H84.1036C84.4805 2.68634 84.8524 2.57457 85.1563 2.35088C85.2885 2.24427 85.3967 2.11093 85.4738 1.95959C85.5509 1.80825 85.5951 1.64233 85.6036 1.4727C85.6264 1.31856 85.6126 1.16121 85.5633 1.01339C85.5141 0.865563 85.4307 0.731413 85.3199 0.621793ZM84.7745 2.03997C84.5812 2.18381 84.3443 2.25698 84.1036 2.24725H83.2308L83.4981 0.725429H84.4254C84.5264 0.718153 84.6278 0.733469 84.7221 0.770266C84.8165 0.807063 84.9014 0.864415 84.9708 0.938156C85.0348 1.01197 85.0805 1.09983 85.1042 1.19459C85.1279 1.28936 85.1289 1.38837 85.1072 1.48361C85.0944 1.59189 85.0591 1.6963 85.0037 1.79021C84.9483 1.88412 84.874 1.96546 84.7854 2.02907L84.7745 2.03997Z" fill="white"></path> <path fill-rule="evenodd" clip-rule="evenodd" d="M87.529 1.73457H87.2999C87.1514 1.73187 87.0048 1.76887 86.8754 1.84175C86.7459 1.91462 86.6383 2.02073 86.5636 2.14911L86.1817 4.1782H85.6963L86.1817 1.2982H86.6508L86.5799 1.63638C86.6584 1.51549 86.7659 1.41619 86.8926 1.34758C87.0193 1.27897 87.1613 1.24324 87.3054 1.24366C87.385 1.24528 87.4639 1.25813 87.5399 1.28184L87.4854 1.74002L87.529 1.73457Z" fill="white"></path> <path fill-rule="evenodd" clip-rule="evenodd" d="M90.1254 1.96911C90.0581 1.75195 89.9246 1.56125 89.7436 1.42366C89.5616 1.29152 89.3413 1.22256 89.1164 1.2273C88.8668 1.21682 88.6198 1.28142 88.4073 1.41275C88.1821 1.54529 87.9944 1.73301 87.8618 1.95821C87.7225 2.204 87.6404 2.47809 87.6218 2.76002C87.5942 3.00671 87.6222 3.25645 87.7036 3.49093C87.774 3.70801 87.9092 3.89835 88.0909 4.03639C88.2733 4.16371 88.4903 4.23222 88.7127 4.23275C88.9724 4.24811 89.2308 4.18542 89.4545 4.05275C89.6731 3.92069 89.852 3.73229 89.9727 3.5073C90.1125 3.2684 90.1999 3.00253 90.2291 2.7273C90.2578 2.46989 90.2222 2.20938 90.1254 1.96911ZM89.7218 2.76548C89.6957 2.95754 89.6327 3.14275 89.5364 3.31093C89.4601 3.46803 89.3409 3.60038 89.1927 3.69275C89.0613 3.77676 88.9066 3.81687 88.7509 3.8073C88.6685 3.81055 88.5864 3.79506 88.5108 3.76199C88.4352 3.72892 88.3681 3.67914 88.3146 3.61639C88.1977 3.4745 88.1307 3.29822 88.1236 3.11457C88.1127 2.99846 88.1127 2.88159 88.1236 2.76548V2.7273C88.151 2.43683 88.2651 2.16129 88.4509 1.93639C88.5265 1.83868 88.6244 1.76047 88.7363 1.70828C88.8483 1.65609 88.9711 1.63144 89.0945 1.63639C89.1771 1.63572 89.2589 1.65292 89.3342 1.68681C89.4095 1.72071 89.4766 1.77049 89.5309 1.83275C89.6494 1.97621 89.7183 2.15417 89.7273 2.34002C89.7382 2.48163 89.7382 2.62387 89.7273 2.76548H89.7218Z" fill="white"></path> <path fill-rule="evenodd" clip-rule="evenodd" d="M91.8001 3.81825C91.9676 3.82349 92.132 3.77269 92.2674 3.67388C92.4027 3.57508 92.5013 3.43393 92.5473 3.2728H93.0055C92.9777 3.45292 92.9024 3.62237 92.7873 3.76371C92.6658 3.91067 92.5133 4.02895 92.3408 4.11005C92.1682 4.19115 91.9798 4.23306 91.7892 4.2328C91.5722 4.23747 91.3595 4.17208 91.1826 4.04631C91.0058 3.92054 90.8742 3.7411 90.8073 3.53462C90.7259 3.30013 90.6979 3.0504 90.7255 2.80371V2.66734C90.753 2.40606 90.8348 2.1534 90.9655 1.92553C91.0895 1.71521 91.2638 1.53902 91.4728 1.4128C91.687 1.28687 91.9339 1.22798 92.1819 1.24371C92.3183 1.24038 92.454 1.26587 92.5799 1.3185C92.7058 1.37113 92.8193 1.44973 92.9128 1.54916C93.0981 1.7507 93.1962 2.01739 93.1855 2.29098H92.7273C92.7307 2.12597 92.6745 1.96527 92.5691 1.83825C92.522 1.77975 92.4632 1.73162 92.3966 1.69689C92.3299 1.66217 92.2568 1.64158 92.1819 1.63643C92.0629 1.63108 91.9444 1.65342 91.8355 1.70169C91.7267 1.74996 91.6305 1.82285 91.5546 1.91462C91.356 2.14286 91.2323 2.42654 91.2001 2.72734V2.79825C91.1892 2.91618 91.1892 3.03487 91.2001 3.1528C91.2024 3.33123 91.2638 3.50386 91.3746 3.64371C91.4287 3.70547 91.496 3.75422 91.5716 3.78633C91.6471 3.81844 91.729 3.83308 91.811 3.82916L91.8001 3.81825Z" fill="white"></path> <path fill-rule="evenodd" clip-rule="evenodd" d="M95.689 1.53813C95.6002 1.4408 95.4913 1.36402 95.3697 1.31315C95.2482 1.26227 95.1171 1.23853 94.9854 1.24359C94.7555 1.23606 94.5283 1.29475 94.3309 1.41268C94.1163 1.54787 93.9398 1.73562 93.8181 1.95813C93.6765 2.19222 93.5889 2.45497 93.5618 2.72722V2.84177C93.5186 3.18807 93.6104 3.5377 93.8181 3.81813C93.9213 3.9437 94.0513 4.04462 94.1985 4.11351C94.3457 4.1824 94.5065 4.21753 94.669 4.21631C94.8919 4.2215 95.1127 4.17285 95.3127 4.0745C95.5014 3.97819 95.6642 3.83788 95.7872 3.6654L95.509 3.43086C95.411 3.5488 95.2886 3.64403 95.1501 3.70995C95.0117 3.77588 94.8606 3.81093 94.7072 3.81268C94.5994 3.81727 94.4923 3.7935 94.3966 3.74372C94.3009 3.69395 94.2199 3.61992 94.1618 3.52904C94.0377 3.33092 93.991 3.09396 94.0309 2.86359H95.929L95.9618 2.63995C95.9618 2.52722 95.9618 2.41268 95.9618 2.29631C95.9614 2.01963 95.865 1.75165 95.689 1.53813ZM95.4927 2.47631H94.0799C94.1405 2.23832 94.265 2.02141 94.4399 1.84904C94.5104 1.77726 94.5958 1.72195 94.6901 1.68706C94.7844 1.65216 94.8852 1.63856 94.9854 1.64722C95.0716 1.64517 95.1569 1.66513 95.2333 1.70521C95.3096 1.7453 95.3745 1.80419 95.4218 1.87631C95.5199 2.04014 95.5584 2.23281 95.5309 2.42177L95.4927 2.47631Z" fill="white"></path> <path fill-rule="evenodd" clip-rule="evenodd" d="M98.051 3.39826C98.0782 3.19644 97.9692 3.06007 97.7237 2.97826L97.2164 2.83098C96.791 2.68371 96.5837 2.44371 96.6001 2.10553C96.6042 1.9815 96.6381 1.86027 96.6988 1.75206C96.7596 1.64384 96.8454 1.55181 96.9492 1.48371C97.1738 1.31627 97.4493 1.2315 97.7292 1.24371C97.992 1.23497 98.2487 1.32442 98.4491 1.49462C98.5407 1.57542 98.6132 1.67557 98.6613 1.78784C98.7094 1.9001 98.732 2.02166 98.7273 2.14371H98.2419C98.2473 2.07816 98.2379 2.01222 98.2143 1.95082C98.1907 1.88942 98.1535 1.83416 98.1055 1.78916C98.0027 1.69568 97.8681 1.64495 97.7292 1.64735C97.5741 1.64178 97.4212 1.68572 97.2928 1.7728C97.239 1.80806 97.1936 1.85464 97.1597 1.90929C97.1257 1.96393 97.1042 2.02532 97.0964 2.08916C97.0964 2.2528 97.1728 2.37826 97.4019 2.45462L97.6528 2.52007C97.9137 2.56841 98.1579 2.68298 98.3619 2.8528C98.4296 2.9177 98.4819 2.99696 98.5149 3.08475C98.548 3.17254 98.5609 3.26663 98.5528 3.36007C98.5462 3.53201 98.4829 3.69693 98.3728 3.82916C98.2579 3.96402 98.1119 4.06886 97.9473 4.13462C97.7736 4.20236 97.5883 4.2357 97.4019 4.2328C97.1233 4.23956 96.8518 4.14454 96.6383 3.96553C96.5307 3.88544 96.4438 3.78077 96.385 3.66025C96.3262 3.53973 96.2971 3.40688 96.3001 3.2728H96.791C96.7891 3.34512 96.8017 3.41709 96.8279 3.48451C96.8541 3.55193 96.8935 3.61347 96.9437 3.66553C97.0635 3.76734 97.2175 3.81996 97.3746 3.8128C97.5348 3.81582 97.6929 3.7763 97.8328 3.69826C97.892 3.66705 97.9428 3.62198 97.9808 3.56688C98.0187 3.51179 98.0428 3.44832 98.051 3.38189V3.39826Z" fill="white"></path> <path fill-rule="evenodd" clip-rule="evenodd" d="M100.833 3.39826C100.838 3.29967 100.808 3.20248 100.746 3.12508C100.685 3.04769 100.597 2.99545 100.5 2.97826L99.9983 2.83098C99.5728 2.68371 99.3655 2.44371 99.3764 2.10553C99.3816 1.98111 99.4165 1.85973 99.4782 1.75155C99.5399 1.64337 99.6265 1.55153 99.731 1.48371C99.9556 1.31627 100.231 1.2315 100.511 1.24371C100.772 1.23421 101.028 1.32384 101.226 1.49462C101.317 1.5752 101.388 1.67561 101.435 1.78813C101.481 1.90065 101.501 2.02229 101.493 2.14371H101.007C101.011 2.0783 101.001 2.0128 100.978 1.95164C100.954 1.89048 100.918 1.83507 100.871 1.78916C100.767 1.69436 100.63 1.64354 100.489 1.64735C100.334 1.64253 100.182 1.6864 100.053 1.7728C100.001 1.80963 99.9573 1.85672 99.9245 1.91114C99.8916 1.96557 99.8703 2.02616 99.8619 2.08916C99.8346 2.2528 99.9383 2.37826 100.167 2.45462L100.413 2.52007C100.674 2.56841 100.918 2.68298 101.122 2.8528C101.191 2.9167 101.245 2.99566 101.279 3.0836C101.313 3.17155 101.327 3.26613 101.318 3.36007C101.312 3.53201 101.248 3.69694 101.138 3.82917C101.024 3.96744 100.876 4.07287 100.707 4.13462C100.534 4.20495 100.349 4.23839 100.162 4.2328C99.8833 4.23957 99.6118 4.14454 99.3983 3.96553C99.2953 3.88257 99.2132 3.77678 99.1583 3.65653C99.1033 3.53629 99.0772 3.40491 99.0819 3.2728H99.5674C99.5662 3.3455 99.5796 3.4177 99.6068 3.48514C99.634 3.55258 99.6743 3.61391 99.7255 3.66553C99.8437 3.76651 99.9957 3.81912 100.151 3.8128C100.313 3.81906 100.474 3.77935 100.615 3.69826C100.674 3.66705 100.725 3.62198 100.763 3.56688C100.801 3.51179 100.825 3.44832 100.833 3.38189V3.39826Z" fill="white"></path> <path fill-rule="evenodd" clip-rule="evenodd" d="M104.111 1.53823C104.02 1.44218 103.91 1.36632 103.788 1.31557C103.665 1.26483 103.534 1.24034 103.402 1.24369C103.172 1.23616 102.945 1.29485 102.747 1.41278C102.533 1.54797 102.356 1.73572 102.235 1.95823C102.1 2.1937 102.019 2.45659 102 2.72732V2.84187C101.944 3.18328 102.022 3.53307 102.218 3.81823C102.321 3.9438 102.451 4.04472 102.599 4.11361C102.746 4.1825 102.907 4.21763 103.069 4.21641C103.292 4.2216 103.513 4.17295 103.713 4.07459C103.901 3.97829 104.064 3.83798 104.187 3.6655L103.904 3.43096C103.806 3.55217 103.682 3.64989 103.541 3.71692C103.401 3.78394 103.247 3.81856 103.091 3.81823C102.983 3.82283 102.876 3.79905 102.78 3.74927C102.685 3.6995 102.604 3.62547 102.545 3.53459C102.421 3.33647 102.375 3.09951 102.415 2.86914H104.318L104.345 2.6455C104.345 2.53278 104.345 2.41823 104.345 2.30187C104.356 2.02806 104.274 1.75872 104.111 1.53823ZM103.915 2.47641H102.496C102.557 2.23842 102.681 2.02151 102.856 1.84914C102.927 1.77736 103.012 1.72205 103.106 1.68715C103.201 1.65226 103.302 1.63866 103.402 1.64732C103.487 1.64462 103.572 1.66434 103.648 1.70453C103.723 1.74471 103.787 1.80397 103.833 1.87641C103.938 2.03751 103.979 2.23212 103.947 2.42187L103.915 2.47641Z" fill="white"></path> <path fill-rule="evenodd" clip-rule="evenodd" d="M107.166 0.0872417L106.909 1.5927C106.82 1.48011 106.707 1.38956 106.577 1.32806C106.447 1.26657 106.305 1.2358 106.162 1.23815C105.944 1.23172 105.729 1.29061 105.546 1.40724C105.343 1.54556 105.18 1.73335 105.071 1.9527C104.936 2.19207 104.847 2.45487 104.809 2.72724C104.798 2.85246 104.798 2.97839 104.809 3.10361C104.808 3.39292 104.898 3.67531 105.066 3.91088C105.142 4.00843 105.24 4.0875 105.351 4.14226C105.463 4.19701 105.585 4.22606 105.709 4.22724C105.869 4.23247 106.028 4.20244 106.175 4.13929C106.322 4.07613 106.454 3.98139 106.56 3.86179L106.511 4.1727H106.953L107.667 0.0817871L107.166 0.0872417ZM106.587 3.3927C106.507 3.52455 106.394 3.63319 106.259 3.70783C106.125 3.78247 105.972 3.8205 105.818 3.81815C105.735 3.82106 105.652 3.80255 105.577 3.76436C105.503 3.72617 105.439 3.66958 105.393 3.59997C105.289 3.42223 105.247 3.2151 105.273 3.01088C105.273 2.78059 105.311 2.55194 105.387 2.33452C105.447 2.13828 105.562 1.96379 105.72 1.8327C105.862 1.71373 106.042 1.65154 106.227 1.65815C106.355 1.65286 106.481 1.6894 106.587 1.76223C106.692 1.83506 106.771 1.94022 106.811 2.06179L106.587 3.3927Z" fill="white"></path> <path fill-rule="evenodd" clip-rule="evenodd" d="M111.469 1.5491C111.392 1.45191 111.293 1.37384 111.18 1.32088C111.068 1.26792 110.944 1.2415 110.82 1.24364C110.659 1.23673 110.499 1.26655 110.352 1.33082C110.204 1.39509 110.073 1.49213 109.969 1.61455L110.258 0.0872803H109.773L109.058 4.17819H109.505L109.604 3.84001C109.689 3.96704 109.805 4.06994 109.942 4.13874C110.079 4.20753 110.231 4.23991 110.384 4.23274C110.598 4.24203 110.809 4.18487 110.989 4.0691C111.192 3.93477 111.353 3.74564 111.453 3.52364C111.583 3.27543 111.666 3.00551 111.698 2.72728V2.67273C111.698 2.56364 111.698 2.4491 111.698 2.34001C111.709 2.05864 111.628 1.7814 111.469 1.5491ZM111.115 3.14728C111.056 3.34119 110.945 3.51495 110.793 3.6491C110.653 3.76313 110.477 3.82314 110.296 3.81819C110.159 3.82095 110.024 3.77801 109.914 3.69608C109.803 3.61416 109.723 3.49788 109.685 3.36546L109.904 2.11092C109.979 1.97103 110.089 1.85345 110.224 1.77011C110.359 1.68677 110.514 1.64063 110.673 1.63637C110.757 1.63355 110.841 1.65207 110.916 1.69021C110.992 1.72835 111.056 1.78487 111.104 1.85455C111.206 2.03491 111.252 2.24223 111.235 2.4491C111.233 2.68681 111.192 2.92264 111.115 3.14728Z" fill="white"></path> <path fill-rule="evenodd" clip-rule="evenodd" d="M113.094 3.45269L114.131 1.29814H114.676L112.947 4.65814C112.878 4.85235 112.754 5.02182 112.589 5.14512C112.424 5.26843 112.226 5.34003 112.02 5.35087C111.922 5.34562 111.825 5.32915 111.731 5.30178L111.774 4.9036H111.9C112.04 4.91355 112.18 4.87714 112.298 4.79996C112.426 4.7056 112.528 4.5797 112.593 4.4345L112.767 4.10723L112.265 1.28723H112.773L113.1 3.46905L113.094 3.45269Z" fill="white"></path> </g> <defs> <clipPath id="clip0"> <rect width="150" height="23.5636" fill="white"></rect> </clipPath> </defs> </svg> 